<svg width="15" height="15" viewBox="0 0 15 15" fill="none" xmlns="http://www.w3.org/2000/svg">
<g clip-path="url(#clip0_11_2)">
<path d="M14.3216 0.678819C14.6963 1.05359 14.6963 1.66113 14.3216 2.0359L2.10786 14.2521C1.73306 14.627 1.1253 14.627 0.750503 14.2521C0.37581 13.8774 0.375809 13.2698 0.750503 12.8951L12.9642 0.678818C13.339 0.303939 13.9468 0.30394 14.3216 0.678819Z" fill="#1E1E1E"/>
<path d="M14.2495 14.3212C14.6242 13.9464 14.6242 13.3389 14.2495 12.9641L2.03575 0.74786C1.66095 0.372981 1.05319 0.372983 0.67839 0.747862C0.303696 1.12263 0.303696 1.73017 0.67839 2.10494L12.8921 14.3212C13.2669 14.6961 13.8747 14.6961 14.2495 14.3212Z" fill="#1E1E1E"/>
</g>
<defs>
<clipPath id="clip0_11_2">
<rect width="15" height="15" fill="white"/>
</clipPath>
</defs>
</svg>
